<svg width="24" height="24" fill="none" xmlns="http://www.w3.org/2000/svg"><path d="M12 20.97c-5.115 0-9.316-4.2-9.316-9.307 0-5.115 4.192-9.316 9.307-9.316s9.317 4.2 9.317 9.316c0 5.107-4.202 9.308-9.308 9.308Zm0-2.39a6.896 6.896 0 0 0 6.917-6.917 6.911 6.911 0 0 0-6.926-6.926 6.896 6.896 0 0 0-6.908 6.926A6.896 6.896 0 0 0 12 18.58Zm-.009-10.476a.99.99 0 0 1-.975-.976c0-.545.448-.984.975-.984.545 0 .976.439.976.984 0 .527-.44.976-.976.976Zm2.646.949a.973.973 0 0 1-.976-.976.98.98 0 0 1 1.96 0 .98.98 0 0 1-.984.976Zm-5.362.009a.979.979 0 1 1 .007-1.959.979.979 0 0 1-.007 1.959Zm-1.52 2.127a.98.98 0 0 1-.976-.985c0-.536.449-.975.976-.975a.979.979 0 0 1 0 1.96Zm8.429.026a.979.979 0 0 1-.976-.976.98.98 0 0 1 .976-.975c.544 0 .975.44.975.975 0 .536-.44.976-.975.976Zm-4.193 5.774a1.58 1.58 0 0 1-1.573-1.582c0-.624.37-1.169.905-1.415v-3.656c0-.396.29-.694.668-.694.396 0 .677.298.677.694v3.656c.527.246.897.791.897 1.415a1.58 1.58 0 0 1-1.574 1.582Z" fill="#000"/></svg>
