<svg width="24" height="24" fill="none" xmlns="http://www.w3.org/2000/svg"><path d="M10.838 22.043c-2.74 0-4.947-2.167-4.947-4.89 0-1.344.506-2.531 1.51-3.453.175-.157.208-.249.208-.473L7.6 6.287c0-2.083 1.303-3.477 3.237-3.477 1.917 0 3.22 1.394 3.22 3.478l-.016 6.94c0 .223.042.315.207.472.988.938 1.511 2.109 1.511 3.453 0 2.723-2.208 4.89-4.922 4.89Zm0-1.86c1.685 0 3.055-1.386 3.055-3.08 0-1.079-.498-1.967-1.37-2.54-.25-.165-.349-.307-.349-.639V6.346c0-1.005-.547-1.669-1.336-1.669-.814 0-1.361.664-1.361 1.669v7.578c0 .332-.092.474-.35.64-.862.572-1.369 1.46-1.369 2.54a3.084 3.084 0 0 0 3.08 3.08Zm4.84-13.763a.534.534 0 0 1-.557-.547c0-.308.216-.557.556-.557h1.868c.34 0 .556.25.556.557a.534.534 0 0 1-.556.547h-1.868Zm0 2.25a.534.534 0 0 1-.557-.548c0-.307.216-.556.556-.556h1.868c.34 0 .556.249.556.556a.534.534 0 0 1-.556.548h-1.868Zm0 2.274a.53.53 0 0 1-.557-.548.53.53 0 0 1 .556-.547h1.868c.34 0 .556.24.556.547a.53.53 0 0 1-.556.548h-1.868Zm-4.848 8.118c-1.08 0-1.951-.871-1.951-1.967 0-.747.423-1.37 1.046-1.71.257-.14.348-.24.348-.63V10.81c0-.415.25-.672.557-.672.307 0 .556.258.556.673v3.942c0 .39.083.49.348.631.623.34 1.046.963 1.046 1.71a1.952 1.952 0 0 1-1.95 1.968Zm4.847-5.843a.53.53 0 0 1-.556-.548c0-.299.216-.548.556-.548h1.868c.34 0 .556.25.556.548a.53.53 0 0 1-.556.548h-1.868Z" fill="#000"/></svg>
