<svg width="24" height="24" fill="none" xmlns="http://www.w3.org/2000/svg"><g clip-path="url(#a)"><path d="M12 20.97c-5.115 0-9.316-4.2-9.316-9.307 0-5.115 4.192-9.316 9.307-9.316s9.317 4.2 9.317 9.316c0 5.107-4.202 9.308-9.308 9.308Zm0-2.39a6.896 6.896 0 0 0 6.917-6.917 6.911 6.911 0 0 0-6.926-6.926 6.896 6.896 0 0 0-6.908 6.926A6.896 6.896 0 0 0 12 18.58Zm-.229-5.308c-.711 0-1.098-.3-1.098-.87v-.07c0-.66.413-1.082 1.028-1.513.703-.474 1.064-.756 1.064-1.195 0-.44-.325-.73-.835-.73-.387 0-.668.194-.95.545-.237.247-.421.51-.966.51-.607 0-.976-.369-.976-.844 0-.184.035-.342.106-.51.334-.852 1.415-1.485 2.909-1.485 1.687 0 3.032.932 3.032 2.391 0 .958-.448 1.45-1.354 2.022-.492.307-.852.597-.922.975-.01.035-.01.07-.018.106-.07.386-.466.668-1.02.668Zm-.008 2.838c-.668 0-1.196-.43-1.196-1.063 0-.65.519-1.072 1.196-1.072.677 0 1.186.43 1.186 1.072 0 .641-.51 1.063-1.186 1.063Z" fill="#111"/></g><defs><clipPath id="a"><path fill="#fff" d="M0 0h24v24H0z"/></clipPath></defs></svg>
