<svg width="24" height="24" fill="none" xmlns="http://www.w3.org/2000/svg"><path d="M11.145 21.287c-.78 0-1.411-.498-1.585-1.245l-.3-1.295-.132-.041-1.129.689c-.664.406-1.453.298-2-.258l-1.18-1.162c-.555-.581-.655-1.361-.248-2.009l.705-1.112-.05-.124-1.286-.308C3.2 14.24 2.71 13.61 2.71 12.83V11.21c0-.78.482-1.411 1.229-1.594l1.278-.315.05-.125-.697-1.12c-.415-.648-.307-1.42.249-2.01l1.17-1.161c.548-.556 1.337-.664 2-.258l1.13.69.14-.05.3-1.295a1.597 1.597 0 0 1 1.585-1.245h1.702c.78 0 1.41.498 1.585 1.245l.299 1.295.141.05 1.129-.69c.664-.406 1.453-.298 2 .258l1.17 1.162c.557.59.665 1.361.25 2.009l-.697 1.12.05.125 1.278.315c.747.183 1.228.814 1.228 1.594v1.619c0 .78-.49 1.402-1.228 1.593l-1.287.307-.05.125.706 1.112c.398.648.307 1.428-.25 2.01l-1.178 1.161c-.548.556-1.336.664-2 .258l-1.13-.69-.132.042-.299 1.295c-.174.747-.805 1.245-1.585 1.245h-1.702Zm.357-1.934h.988c.14 0 .199-.058.224-.183l.481-2.008a4.682 4.682 0 0 0 1.636-.681l1.743 1.08c.1.066.199.066.299-.034l.688-.68c.092-.1.084-.192.025-.291l-1.087-1.76c.307-.481.54-1.046.648-1.602l2.025-.482c.116-.016.183-.083.183-.224v-.946c0-.141-.059-.2-.183-.232l-2.017-.474a5.007 5.007 0 0 0-.648-1.61l1.08-1.751c.066-.108.074-.2-.017-.3l-.697-.68c-.1-.091-.183-.1-.3-.033l-1.75 1.07a5.143 5.143 0 0 0-1.628-.672l-.481-2.017c-.025-.124-.083-.182-.224-.182h-.988c-.141 0-.2.066-.224.182l-.473 2.01c-.59.132-1.229.397-1.644.68l-1.76-1.08c-.108-.066-.199-.057-.298.034l-.69.68c-.099.092-.09.191-.024.3l1.095 1.76a5.374 5.374 0 0 0-.647 1.61l-2.017.473c-.116.033-.183.09-.183.232v.946c0 .141.067.208.183.224l2.017.473a5.03 5.03 0 0 0 .656 1.61l-1.096 1.769c-.066.1-.075.2.025.29l.689.681c.091.091.19.1.29.033l1.768-1.087a4.63 4.63 0 0 0 1.636.68l.473 2.01c.025.116.083.182.224.182ZM12 15.136a3.142 3.142 0 0 1-3.13-3.13c0-1.71 1.412-3.104 3.13-3.104a3.118 3.118 0 0 1 3.113 3.105c0 1.718-1.403 3.13-3.113 3.13Zm0-1.701c.755 0 1.395-.648 1.395-1.428 0-.764-.64-1.411-1.395-1.411-.78 0-1.42.639-1.42 1.41 0 .79.64 1.429 1.42 1.429Z" fill="#111"/></svg>
