<svg width="64" height="64" viewBox="0 0 18 19" fill="none" xmlns="http://www.w3.org/2000/svg">
  <path
    fill-rule="evenodd"
    clip-rule="evenodd"
    d="M8.02671 0.514463C7.29433 0.667777 6.60478 1.06023 5.22567 1.84515L3.82683 2.6413C2.43299 3.43459 1.73607 3.83124 1.22908 4.38819C0.780513 4.88096 0.441524 5.46228 0.234254 6.09417C-9.46936e-06 6.80836 -6.29253e-06 7.60681 6.59957e-08 9.20371L4.12793e-06 10.2238C1.0516e-05 11.8281 1.37143e-05 12.6303 0.236159 13.3471C0.445087 13.9813 0.78673 14.5643 1.2386 15.0578C1.74934 15.6155 2.45119 16.011 3.85488 16.8021L5.25726 17.5924L5.25727 17.5924C6.62558 18.3635 7.30973 18.7491 8.03568 18.9C8.6781 19.0335 9.34135 19.0332 9.98367 18.8993C10.7095 18.7479 11.3934 18.3619 12.7612 17.5898L14.1497 16.8061C15.5518 16.0147 16.2528 15.6189 16.763 15.0613C17.2143 14.568 17.5555 13.9853 17.7642 13.3514C18 12.635 18 11.8335 18 10.2303L18 9.20247C18 7.60819 18 6.81106 17.7664 6.09781C17.5597 5.46674 17.2216 4.88603 16.7742 4.3935C16.2685 3.83684 15.5734 3.43981 14.183 2.64576L12.791 1.85076C11.4131 1.0638 10.7241 0.670322 9.99199 0.515922C9.34415 0.379301 8.67475 0.378804 8.02671 0.514463ZM6.45652 7.35998C5.15985 7.35998 4.1087 8.41114 4.1087 9.70781C4.1087 11.0045 5.15985 12.0556 6.45652 12.0556H11.5435C12.8401 12.0556 13.8913 11.0045 13.8913 9.70781C13.8913 8.41114 12.8401 7.35998 11.5435 7.35998H6.45652Z"
    fill="currentColor"
  />
</svg>
